<?xml version="1.0" encoding="UTF-8"?>
<svg version="1.1" xmlns="http://www.w3.org/2000/svg" width="35" height="32">
<path d="M0 0 C1.20970459 0.00523682 2.41940918 0.01047363 3.66577148 0.01586914 C4.84083252 0.0183667 6.01589355 0.02086426 7.2265625 0.0234375 C8.7314624 0.0325415 10.2363623 0.04164551 11.78686523 0.05102539 C16.55124023 0.07165039 21.31561523 0.09227539 26.22436523 0.11352539 C26.22436523 9.68352539 26.22436523 19.25352539 26.22436523 29.11352539 C22.59436523 29.11352539 18.96436523 29.11352539 15.22436523 29.11352539 C15.22436523 29.77352539 15.22436523 30.43352539 15.22436523 31.11352539 C14.5140918 31.10192383 13.80381836 31.09032227 13.07202148 31.07836914 C12.15291992 31.0693457 11.23381836 31.06032227 10.28686523 31.05102539 C8.91208008 31.03362305 8.91208008 31.03362305 7.50952148 31.01586914 C5.25843196 30.8540349 5.25843196 30.8540349 4.22436523 32.11352539 C-0.11094394 32.25745996 -4.43721208 32.155646 -8.77563477 32.11352539 C-8.77563477 27.82352539 -8.77563477 23.53352539 -8.77563477 19.11352539 C-8.11563477 19.11352539 -7.45563477 19.11352539 -6.77563477 19.11352539 C-6.77563477 16.14352539 -6.77563477 13.17352539 -6.77563477 10.11352539 C-5.45563477 10.11352539 -4.13563477 10.11352539 -2.77563477 10.11352539 C-3.10563477 9.12352539 -3.43563477 8.13352539 -3.77563477 7.11352539 C-3.90063477 3.98852539 -3.90063477 3.98852539 -3.77563477 1.11352539 C-2.77563477 0.11352539 -2.77563477 0.11352539 0 0 Z " fill="#408EA0" transform="translate(8.775634765625,-0.113525390625)"/>
<path d="M0 0 C1.20970459 0.00523682 2.41940918 0.01047363 3.66577148 0.01586914 C4.84083252 0.0183667 6.01589355 0.02086426 7.2265625 0.0234375 C8.7314624 0.0325415 10.2363623 0.04164551 11.78686523 0.05102539 C16.55124023 0.07165039 21.31561523 0.09227539 26.22436523 0.11352539 C26.22436523 9.68352539 26.22436523 19.25352539 26.22436523 29.11352539 C22.59436523 29.11352539 18.96436523 29.11352539 15.22436523 29.11352539 C15.22436523 22.51352539 15.22436523 15.91352539 15.22436523 9.11352539 C9.28436523 9.11352539 3.34436523 9.11352539 -2.77563477 9.11352539 C-4.14187151 6.38105191 -3.90406076 4.13153637 -3.77563477 1.11352539 C-2.77563477 0.11352539 -2.77563477 0.11352539 0 0 Z " fill="#78C5D7" transform="translate(8.775634765625,-0.113525390625)"/>
<path d="M0 0 C9.27734375 -0.09765625 9.27734375 -0.09765625 12 0 C13 1 13 1 13.09765625 3.72265625 C13.04882812 8.36132812 13.04882812 8.36132812 13 13 C8.71 13 4.42 13 0 13 C0 8.71 0 4.42 0 0 Z " fill="#255B72" transform="translate(0,19)"/>
</svg>
