<?xml version="1.0" encoding="UTF-8"?>
<svg version="1.1" xmlns="http://www.w3.org/2000/svg" width="26" height="24">
<path d="M0 0 C7.26 0 14.52 0 22 0 C22 7.26 22 14.52 22 22 C19.36 22 16.72 22 14 22 C14 22.66 14 23.32 14 24 C8.06 24 2.12 24 -4 24 C-4 20.7 -4 17.4 -4 14 C-3.34 14 -2.68 14 -2 14 C-2 11.69 -2 9.38 -2 7 C-1.34 7 -0.68 7 0 7 C0 4.69 0 2.38 0 0 Z " fill="#76C3D5" transform="translate(4,0)"/>
<path d="M0 0 C4.95 0 9.9 0 15 0 C15.495 8.415 15.495 8.415 16 17 C10.06 17 4.12 17 -2 17 C-2 13.7 -2 10.4 -2 7 C-1.34 7 -0.68 7 0 7 C0 4.69 0 2.38 0 0 Z " fill="#3D8B9D" transform="translate(2,7)"/>
<path d="M0 0 C2.97 0 5.94 0 9 0 C9.33 3.3 9.66 6.6 10 10 C6.7 10 3.4 10 0 10 C0 6.7 0 3.4 0 0 Z " fill="#245A70" transform="translate(0,14)"/>
</svg>
