<?xml version="1.0" encoding="UTF-8"?>
<svg version="1.1" xmlns="http://www.w3.org/2000/svg" width="17" height="16">
<path d="M0 0 C4.95 0 9.9 0 15 0 C15 4.95 15 9.9 15 15 C10.93822627 15.81235475 7.76649908 16.10732417 3.6875 16.0625 C2.61886719 16.05347656 1.55023438 16.04445313 0.44921875 16.03515625 C-0.35902344 16.02355469 -1.16726562 16.01195313 -2 16 C-2.18125124 11.37809326 -1.82562083 8.22174816 0 4 C0 2.68 0 1.36 0 0 Z " fill="#76C2D4" transform="translate(2,0)"/>
<path d="M0 0 C3.3 0 6.6 0 10 0 C10.33 3.63 10.66 7.26 11 11 C7.04 11 3.08 11 -1 11 C-1.07622858 7.03611362 -0.9681648 3.8726592 0 0 Z " fill="#3D8B9D" transform="translate(1,5)"/>
<path d="M0 0 C1.98 0 3.96 0 6 0 C6 2.31 6 4.62 6 7 C4.02 7 2.04 7 0 7 C0 4.69 0 2.38 0 0 Z " fill="#245B71" transform="translate(0,9)"/>
</svg>
